<mxfile host="app.diagrams.net" agent="Mozilla/5.0 (X11; Ubuntu; Linux x86_64; rv:138.0) Gecko/20100101 Firefox/138.0" version="27.0.5">
  <diagram name="Page-1" id="_vBf9dT80Fdjoewx6GIj">
    <mxGraphModel dx="838" dy="517" grid="0" gridSize="10" guides="1" tooltips="1" connect="1" arrows="1" fold="1" page="1" pageScale="1" pageWidth="850" pageHeight="1100" math="0" shadow="0">
      <root>
        <mxCell id="0" />
        <mxCell id="1" parent="0" />
        <mxCell id="aKlZ6hxRmL_Q2Zg3GWe3-1" value="Warehouses" style="shape=table;startSize=30;container=1;collapsible=1;childLayout=tableLayout;fixedRows=1;rowLines=0;fontStyle=1;align=center;resizeLast=1;html=1;" parent="1" vertex="1">
          <mxGeometry x="24" y="176" width="180" height="120" as="geometry" />
        </mxCell>
        <mxCell id="aKlZ6hxRmL_Q2Zg3GWe3-2" value="" style="shape=tableRow;horizontal=0;startSize=0;swimlaneHead=0;swimlaneBody=0;fillColor=none;collapsible=0;dropTarget=0;points=[[0,0.5],[1,0.5]];portConstraint=eastwest;top=0;left=0;right=0;bottom=1;" parent="aKlZ6hxRmL_Q2Zg3GWe3-1" vertex="1">
          <mxGeometry y="30" width="180" height="30" as="geometry" />
        </mxCell>
        <mxCell id="aKlZ6hxRmL_Q2Zg3GWe3-3" value="PK" style="shape=partialRectangle;connectable=0;fillColor=none;top=0;left=0;bottom=0;right=0;fontStyle=1;overflow=hidden;whiteSpace=wrap;html=1;" parent="aKlZ6hxRmL_Q2Zg3GWe3-2" vertex="1">
          <mxGeometry width="30" height="30" as="geometry">
            <mxRectangle width="30" height="30" as="alternateBounds" />
          </mxGeometry>
        </mxCell>
        <mxCell id="aKlZ6hxRmL_Q2Zg3GWe3-4" value="Warehouse_id" style="shape=partialRectangle;connectable=0;fillColor=none;top=0;left=0;bottom=0;right=0;align=left;spacingLeft=6;fontStyle=5;overflow=hidden;whiteSpace=wrap;html=1;" parent="aKlZ6hxRmL_Q2Zg3GWe3-2" vertex="1">
          <mxGeometry x="30" width="150" height="30" as="geometry">
            <mxRectangle width="150" height="30" as="alternateBounds" />
          </mxGeometry>
        </mxCell>
        <mxCell id="aKlZ6hxRmL_Q2Zg3GWe3-5" value="" style="shape=tableRow;horizontal=0;startSize=0;swimlaneHead=0;swimlaneBody=0;fillColor=none;collapsible=0;dropTarget=0;points=[[0,0.5],[1,0.5]];portConstraint=eastwest;top=0;left=0;right=0;bottom=0;" parent="aKlZ6hxRmL_Q2Zg3GWe3-1" vertex="1">
          <mxGeometry y="60" width="180" height="30" as="geometry" />
        </mxCell>
        <mxCell id="aKlZ6hxRmL_Q2Zg3GWe3-6" value="" style="shape=partialRectangle;connectable=0;fillColor=none;top=0;left=0;bottom=0;right=0;editable=1;overflow=hidden;whiteSpace=wrap;html=1;" parent="aKlZ6hxRmL_Q2Zg3GWe3-5" vertex="1">
          <mxGeometry width="30" height="30" as="geometry">
            <mxRectangle width="30" height="30" as="alternateBounds" />
          </mxGeometry>
        </mxCell>
        <mxCell id="aKlZ6hxRmL_Q2Zg3GWe3-7" value="Name" style="shape=partialRectangle;connectable=0;fillColor=none;top=0;left=0;bottom=0;right=0;align=left;spacingLeft=6;overflow=hidden;whiteSpace=wrap;html=1;" parent="aKlZ6hxRmL_Q2Zg3GWe3-5" vertex="1">
          <mxGeometry x="30" width="150" height="30" as="geometry">
            <mxRectangle width="150" height="30" as="alternateBounds" />
          </mxGeometry>
        </mxCell>
        <mxCell id="aKlZ6hxRmL_Q2Zg3GWe3-8" value="" style="shape=tableRow;horizontal=0;startSize=0;swimlaneHead=0;swimlaneBody=0;fillColor=none;collapsible=0;dropTarget=0;points=[[0,0.5],[1,0.5]];portConstraint=eastwest;top=0;left=0;right=0;bottom=0;" parent="aKlZ6hxRmL_Q2Zg3GWe3-1" vertex="1">
          <mxGeometry y="90" width="180" height="30" as="geometry" />
        </mxCell>
        <mxCell id="aKlZ6hxRmL_Q2Zg3GWe3-9" value="" style="shape=partialRectangle;connectable=0;fillColor=none;top=0;left=0;bottom=0;right=0;editable=1;overflow=hidden;whiteSpace=wrap;html=1;" parent="aKlZ6hxRmL_Q2Zg3GWe3-8" vertex="1">
          <mxGeometry width="30" height="30" as="geometry">
            <mxRectangle width="30" height="30" as="alternateBounds" />
          </mxGeometry>
        </mxCell>
        <mxCell id="aKlZ6hxRmL_Q2Zg3GWe3-10" value="Location" style="shape=partialRectangle;connectable=0;fillColor=none;top=0;left=0;bottom=0;right=0;align=left;spacingLeft=6;overflow=hidden;whiteSpace=wrap;html=1;" parent="aKlZ6hxRmL_Q2Zg3GWe3-8" vertex="1">
          <mxGeometry x="30" width="150" height="30" as="geometry">
            <mxRectangle width="150" height="30" as="alternateBounds" />
          </mxGeometry>
        </mxCell>
        <mxCell id="aKlZ6hxRmL_Q2Zg3GWe3-31" value="Products" style="shape=table;startSize=30;container=1;collapsible=1;childLayout=tableLayout;fixedRows=1;rowLines=0;fontStyle=1;align=center;resizeLast=1;html=1;" parent="1" vertex="1">
          <mxGeometry x="578" y="67" width="180" height="120" as="geometry" />
        </mxCell>
        <mxCell id="aKlZ6hxRmL_Q2Zg3GWe3-32" value="" style="shape=tableRow;horizontal=0;startSize=0;swimlaneHead=0;swimlaneBody=0;fillColor=none;collapsible=0;dropTarget=0;points=[[0,0.5],[1,0.5]];portConstraint=eastwest;top=0;left=0;right=0;bottom=1;" parent="aKlZ6hxRmL_Q2Zg3GWe3-31" vertex="1">
          <mxGeometry y="30" width="180" height="30" as="geometry" />
        </mxCell>
        <mxCell id="aKlZ6hxRmL_Q2Zg3GWe3-33" value="PK" style="shape=partialRectangle;connectable=0;fillColor=none;top=0;left=0;bottom=0;right=0;fontStyle=1;overflow=hidden;whiteSpace=wrap;html=1;" parent="aKlZ6hxRmL_Q2Zg3GWe3-32" vertex="1">
          <mxGeometry width="30" height="30" as="geometry">
            <mxRectangle width="30" height="30" as="alternateBounds" />
          </mxGeometry>
        </mxCell>
        <mxCell id="aKlZ6hxRmL_Q2Zg3GWe3-34" value="Product_id" style="shape=partialRectangle;connectable=0;fillColor=none;top=0;left=0;bottom=0;right=0;align=left;spacingLeft=6;fontStyle=5;overflow=hidden;whiteSpace=wrap;html=1;" parent="aKlZ6hxRmL_Q2Zg3GWe3-32" vertex="1">
          <mxGeometry x="30" width="150" height="30" as="geometry">
            <mxRectangle width="150" height="30" as="alternateBounds" />
          </mxGeometry>
        </mxCell>
        <mxCell id="aKlZ6hxRmL_Q2Zg3GWe3-35" value="" style="shape=tableRow;horizontal=0;startSize=0;swimlaneHead=0;swimlaneBody=0;fillColor=none;collapsible=0;dropTarget=0;points=[[0,0.5],[1,0.5]];portConstraint=eastwest;top=0;left=0;right=0;bottom=0;" parent="aKlZ6hxRmL_Q2Zg3GWe3-31" vertex="1">
          <mxGeometry y="60" width="180" height="30" as="geometry" />
        </mxCell>
        <mxCell id="aKlZ6hxRmL_Q2Zg3GWe3-36" value="" style="shape=partialRectangle;connectable=0;fillColor=none;top=0;left=0;bottom=0;right=0;editable=1;overflow=hidden;whiteSpace=wrap;html=1;" parent="aKlZ6hxRmL_Q2Zg3GWe3-35" vertex="1">
          <mxGeometry width="30" height="30" as="geometry">
            <mxRectangle width="30" height="30" as="alternateBounds" />
          </mxGeometry>
        </mxCell>
        <mxCell id="aKlZ6hxRmL_Q2Zg3GWe3-37" value="Name" style="shape=partialRectangle;connectable=0;fillColor=none;top=0;left=0;bottom=0;right=0;align=left;spacingLeft=6;overflow=hidden;whiteSpace=wrap;html=1;" parent="aKlZ6hxRmL_Q2Zg3GWe3-35" vertex="1">
          <mxGeometry x="30" width="150" height="30" as="geometry">
            <mxRectangle width="150" height="30" as="alternateBounds" />
          </mxGeometry>
        </mxCell>
        <mxCell id="aKlZ6hxRmL_Q2Zg3GWe3-38" value="" style="shape=tableRow;horizontal=0;startSize=0;swimlaneHead=0;swimlaneBody=0;fillColor=none;collapsible=0;dropTarget=0;points=[[0,0.5],[1,0.5]];portConstraint=eastwest;top=0;left=0;right=0;bottom=0;" parent="aKlZ6hxRmL_Q2Zg3GWe3-31" vertex="1">
          <mxGeometry y="90" width="180" height="30" as="geometry" />
        </mxCell>
        <mxCell id="aKlZ6hxRmL_Q2Zg3GWe3-39" value="" style="shape=partialRectangle;connectable=0;fillColor=none;top=0;left=0;bottom=0;right=0;editable=1;overflow=hidden;whiteSpace=wrap;html=1;" parent="aKlZ6hxRmL_Q2Zg3GWe3-38" vertex="1">
          <mxGeometry width="30" height="30" as="geometry">
            <mxRectangle width="30" height="30" as="alternateBounds" />
          </mxGeometry>
        </mxCell>
        <mxCell id="aKlZ6hxRmL_Q2Zg3GWe3-40" value="Category" style="shape=partialRectangle;connectable=0;fillColor=none;top=0;left=0;bottom=0;right=0;align=left;spacingLeft=6;overflow=hidden;whiteSpace=wrap;html=1;" parent="aKlZ6hxRmL_Q2Zg3GWe3-38" vertex="1">
          <mxGeometry x="30" width="150" height="30" as="geometry">
            <mxRectangle width="150" height="30" as="alternateBounds" />
          </mxGeometry>
        </mxCell>
        <mxCell id="aKlZ6hxRmL_Q2Zg3GWe3-44" value="Suppliers" style="shape=table;startSize=30;container=1;collapsible=1;childLayout=tableLayout;fixedRows=1;rowLines=0;fontStyle=1;align=center;resizeLast=1;html=1;" parent="1" vertex="1">
          <mxGeometry x="601" y="225" width="180" height="120" as="geometry" />
        </mxCell>
        <mxCell id="aKlZ6hxRmL_Q2Zg3GWe3-45" value="" style="shape=tableRow;horizontal=0;startSize=0;swimlaneHead=0;swimlaneBody=0;fillColor=none;collapsible=0;dropTarget=0;points=[[0,0.5],[1,0.5]];portConstraint=eastwest;top=0;left=0;right=0;bottom=1;" parent="aKlZ6hxRmL_Q2Zg3GWe3-44" vertex="1">
          <mxGeometry y="30" width="180" height="30" as="geometry" />
        </mxCell>
        <mxCell id="aKlZ6hxRmL_Q2Zg3GWe3-46" value="PK" style="shape=partialRectangle;connectable=0;fillColor=none;top=0;left=0;bottom=0;right=0;fontStyle=1;overflow=hidden;whiteSpace=wrap;html=1;" parent="aKlZ6hxRmL_Q2Zg3GWe3-45" vertex="1">
          <mxGeometry width="30" height="30" as="geometry">
            <mxRectangle width="30" height="30" as="alternateBounds" />
          </mxGeometry>
        </mxCell>
        <mxCell id="aKlZ6hxRmL_Q2Zg3GWe3-47" value="Suppliers_Id" style="shape=partialRectangle;connectable=0;fillColor=none;top=0;left=0;bottom=0;right=0;align=left;spacingLeft=6;fontStyle=5;overflow=hidden;whiteSpace=wrap;html=1;" parent="aKlZ6hxRmL_Q2Zg3GWe3-45" vertex="1">
          <mxGeometry x="30" width="150" height="30" as="geometry">
            <mxRectangle width="150" height="30" as="alternateBounds" />
          </mxGeometry>
        </mxCell>
        <mxCell id="aKlZ6hxRmL_Q2Zg3GWe3-48" value="" style="shape=tableRow;horizontal=0;startSize=0;swimlaneHead=0;swimlaneBody=0;fillColor=none;collapsible=0;dropTarget=0;points=[[0,0.5],[1,0.5]];portConstraint=eastwest;top=0;left=0;right=0;bottom=0;" parent="aKlZ6hxRmL_Q2Zg3GWe3-44" vertex="1">
          <mxGeometry y="60" width="180" height="30" as="geometry" />
        </mxCell>
        <mxCell id="aKlZ6hxRmL_Q2Zg3GWe3-49" value="" style="shape=partialRectangle;connectable=0;fillColor=none;top=0;left=0;bottom=0;right=0;editable=1;overflow=hidden;whiteSpace=wrap;html=1;" parent="aKlZ6hxRmL_Q2Zg3GWe3-48" vertex="1">
          <mxGeometry width="30" height="30" as="geometry">
            <mxRectangle width="30" height="30" as="alternateBounds" />
          </mxGeometry>
        </mxCell>
        <mxCell id="aKlZ6hxRmL_Q2Zg3GWe3-50" value="Name" style="shape=partialRectangle;connectable=0;fillColor=none;top=0;left=0;bottom=0;right=0;align=left;spacingLeft=6;overflow=hidden;whiteSpace=wrap;html=1;" parent="aKlZ6hxRmL_Q2Zg3GWe3-48" vertex="1">
          <mxGeometry x="30" width="150" height="30" as="geometry">
            <mxRectangle width="150" height="30" as="alternateBounds" />
          </mxGeometry>
        </mxCell>
        <mxCell id="aKlZ6hxRmL_Q2Zg3GWe3-51" value="" style="shape=tableRow;horizontal=0;startSize=0;swimlaneHead=0;swimlaneBody=0;fillColor=none;collapsible=0;dropTarget=0;points=[[0,0.5],[1,0.5]];portConstraint=eastwest;top=0;left=0;right=0;bottom=0;" parent="aKlZ6hxRmL_Q2Zg3GWe3-44" vertex="1">
          <mxGeometry y="90" width="180" height="30" as="geometry" />
        </mxCell>
        <mxCell id="aKlZ6hxRmL_Q2Zg3GWe3-52" value="" style="shape=partialRectangle;connectable=0;fillColor=none;top=0;left=0;bottom=0;right=0;editable=1;overflow=hidden;whiteSpace=wrap;html=1;" parent="aKlZ6hxRmL_Q2Zg3GWe3-51" vertex="1">
          <mxGeometry width="30" height="30" as="geometry">
            <mxRectangle width="30" height="30" as="alternateBounds" />
          </mxGeometry>
        </mxCell>
        <mxCell id="aKlZ6hxRmL_Q2Zg3GWe3-53" value="Contact_Email" style="shape=partialRectangle;connectable=0;fillColor=none;top=0;left=0;bottom=0;right=0;align=left;spacingLeft=6;overflow=hidden;whiteSpace=wrap;html=1;" parent="aKlZ6hxRmL_Q2Zg3GWe3-51" vertex="1">
          <mxGeometry x="30" width="150" height="30" as="geometry">
            <mxRectangle width="150" height="30" as="alternateBounds" />
          </mxGeometry>
        </mxCell>
        <mxCell id="aKlZ6hxRmL_Q2Zg3GWe3-57" value="&lt;b&gt;Employess&lt;/b&gt;" style="shape=table;startSize=30;container=1;collapsible=1;childLayout=tableLayout;fixedRows=1;rowLines=0;fontStyle=1;align=center;resizeLast=1;html=1;" parent="1" vertex="1">
          <mxGeometry x="34" y="381" width="180" height="120" as="geometry" />
        </mxCell>
        <mxCell id="aKlZ6hxRmL_Q2Zg3GWe3-70" value="" style="shape=tableRow;horizontal=0;startSize=0;swimlaneHead=0;swimlaneBody=0;fillColor=none;collapsible=0;dropTarget=0;points=[[0,0.5],[1,0.5]];portConstraint=eastwest;top=0;left=0;right=0;bottom=0;" parent="aKlZ6hxRmL_Q2Zg3GWe3-57" vertex="1">
          <mxGeometry y="30" width="180" height="30" as="geometry" />
        </mxCell>
        <mxCell id="aKlZ6hxRmL_Q2Zg3GWe3-71" value="&lt;b&gt;PK,FK&lt;/b&gt;" style="shape=partialRectangle;connectable=0;fillColor=none;top=0;left=0;bottom=0;right=0;fontStyle=0;overflow=hidden;whiteSpace=wrap;html=1;" parent="aKlZ6hxRmL_Q2Zg3GWe3-70" vertex="1">
          <mxGeometry width="48.12500000000003" height="30" as="geometry">
            <mxRectangle width="48.12500000000003" height="30" as="alternateBounds" />
          </mxGeometry>
        </mxCell>
        <mxCell id="aKlZ6hxRmL_Q2Zg3GWe3-72" value="&lt;b&gt;warehouse_id_fk&lt;/b&gt;" style="shape=partialRectangle;connectable=0;fillColor=none;top=0;left=0;bottom=0;right=0;align=left;spacingLeft=6;fontStyle=0;overflow=hidden;whiteSpace=wrap;html=1;" parent="aKlZ6hxRmL_Q2Zg3GWe3-70" vertex="1">
          <mxGeometry x="48.12500000000003" width="131.87499999999997" height="30" as="geometry">
            <mxRectangle width="131.87499999999997" height="30" as="alternateBounds" />
          </mxGeometry>
        </mxCell>
        <mxCell id="aKlZ6hxRmL_Q2Zg3GWe3-58" value="" style="shape=tableRow;horizontal=0;startSize=0;swimlaneHead=0;swimlaneBody=0;fillColor=none;collapsible=0;dropTarget=0;points=[[0,0.5],[1,0.5]];portConstraint=eastwest;top=0;left=0;right=0;bottom=1;" parent="aKlZ6hxRmL_Q2Zg3GWe3-57" vertex="1">
          <mxGeometry y="60" width="180" height="30" as="geometry" />
        </mxCell>
        <mxCell id="aKlZ6hxRmL_Q2Zg3GWe3-59" value="PK" style="shape=partialRectangle;connectable=0;fillColor=none;top=0;left=0;bottom=0;right=0;fontStyle=1;overflow=hidden;whiteSpace=wrap;html=1;" parent="aKlZ6hxRmL_Q2Zg3GWe3-58" vertex="1">
          <mxGeometry width="48.12500000000003" height="30" as="geometry">
            <mxRectangle width="48.12500000000003" height="30" as="alternateBounds" />
          </mxGeometry>
        </mxCell>
        <mxCell id="aKlZ6hxRmL_Q2Zg3GWe3-60" value="Employee_id" style="shape=partialRectangle;connectable=0;fillColor=none;top=0;left=0;bottom=0;right=0;align=left;spacingLeft=6;fontStyle=5;overflow=hidden;whiteSpace=wrap;html=1;" parent="aKlZ6hxRmL_Q2Zg3GWe3-58" vertex="1">
          <mxGeometry x="48.12500000000003" width="131.87499999999997" height="30" as="geometry">
            <mxRectangle width="131.87499999999997" height="30" as="alternateBounds" />
          </mxGeometry>
        </mxCell>
        <mxCell id="aKlZ6hxRmL_Q2Zg3GWe3-64" value="" style="shape=tableRow;horizontal=0;startSize=0;swimlaneHead=0;swimlaneBody=0;fillColor=none;collapsible=0;dropTarget=0;points=[[0,0.5],[1,0.5]];portConstraint=eastwest;top=0;left=0;right=0;bottom=0;" parent="aKlZ6hxRmL_Q2Zg3GWe3-57" vertex="1">
          <mxGeometry y="90" width="180" height="30" as="geometry" />
        </mxCell>
        <mxCell id="aKlZ6hxRmL_Q2Zg3GWe3-65" value="" style="shape=partialRectangle;connectable=0;fillColor=none;top=0;left=0;bottom=0;right=0;editable=1;overflow=hidden;whiteSpace=wrap;html=1;" parent="aKlZ6hxRmL_Q2Zg3GWe3-64" vertex="1">
          <mxGeometry width="48.12500000000003" height="30" as="geometry">
            <mxRectangle width="48.12500000000003" height="30" as="alternateBounds" />
          </mxGeometry>
        </mxCell>
        <mxCell id="aKlZ6hxRmL_Q2Zg3GWe3-66" value="Name" style="shape=partialRectangle;connectable=0;fillColor=none;top=0;left=0;bottom=0;right=0;align=left;spacingLeft=6;overflow=hidden;whiteSpace=wrap;html=1;" parent="aKlZ6hxRmL_Q2Zg3GWe3-64" vertex="1">
          <mxGeometry x="48.12500000000003" width="131.87499999999997" height="30" as="geometry">
            <mxRectangle width="131.87499999999997" height="30" as="alternateBounds" />
          </mxGeometry>
        </mxCell>
        <mxCell id="aKlZ6hxRmL_Q2Zg3GWe3-73" value="Inventory_Movements" style="shape=table;startSize=30;container=1;collapsible=1;childLayout=tableLayout;fixedRows=1;rowLines=0;fontStyle=1;align=center;resizeLast=1;html=1;whiteSpace=wrap;" parent="1" vertex="1">
          <mxGeometry x="277" y="128" width="240" height="240" as="geometry" />
        </mxCell>
        <mxCell id="aKlZ6hxRmL_Q2Zg3GWe3-86" value="" style="shape=tableRow;horizontal=0;startSize=0;swimlaneHead=0;swimlaneBody=0;fillColor=none;collapsible=0;dropTarget=0;points=[[0,0.5],[1,0.5]];portConstraint=eastwest;top=0;left=0;right=0;bottom=1;" parent="aKlZ6hxRmL_Q2Zg3GWe3-73" vertex="1">
          <mxGeometry y="30" width="240" height="30" as="geometry" />
        </mxCell>
        <mxCell id="aKlZ6hxRmL_Q2Zg3GWe3-87" value="PK" style="shape=partialRectangle;connectable=0;fillColor=none;top=0;left=0;bottom=0;right=0;fontStyle=1;overflow=hidden;whiteSpace=wrap;html=1;" parent="aKlZ6hxRmL_Q2Zg3GWe3-86" vertex="1">
          <mxGeometry width="60" height="30" as="geometry">
            <mxRectangle width="60" height="30" as="alternateBounds" />
          </mxGeometry>
        </mxCell>
        <mxCell id="aKlZ6hxRmL_Q2Zg3GWe3-88" value="Movements_id" style="shape=partialRectangle;connectable=0;fillColor=none;top=0;left=0;bottom=0;right=0;align=left;spacingLeft=6;fontStyle=5;overflow=hidden;whiteSpace=wrap;html=1;" parent="aKlZ6hxRmL_Q2Zg3GWe3-86" vertex="1">
          <mxGeometry x="60" width="180" height="30" as="geometry">
            <mxRectangle width="180" height="30" as="alternateBounds" />
          </mxGeometry>
        </mxCell>
        <mxCell id="aKlZ6hxRmL_Q2Zg3GWe3-74" value="" style="shape=tableRow;horizontal=0;startSize=0;swimlaneHead=0;swimlaneBody=0;fillColor=none;collapsible=0;dropTarget=0;points=[[0,0.5],[1,0.5]];portConstraint=eastwest;top=0;left=0;right=0;bottom=0;html=1;" parent="aKlZ6hxRmL_Q2Zg3GWe3-73" vertex="1">
          <mxGeometry y="60" width="240" height="30" as="geometry" />
        </mxCell>
        <mxCell id="aKlZ6hxRmL_Q2Zg3GWe3-75" value="PK,FK1" style="shape=partialRectangle;connectable=0;fillColor=none;top=0;left=0;bottom=0;right=0;fontStyle=1;overflow=hidden;html=1;whiteSpace=wrap;" parent="aKlZ6hxRmL_Q2Zg3GWe3-74" vertex="1">
          <mxGeometry width="60" height="30" as="geometry">
            <mxRectangle width="60" height="30" as="alternateBounds" />
          </mxGeometry>
        </mxCell>
        <mxCell id="aKlZ6hxRmL_Q2Zg3GWe3-76" value="Warehouse_id_fk" style="shape=partialRectangle;connectable=0;fillColor=none;top=0;left=0;bottom=0;right=0;align=left;spacingLeft=6;fontStyle=5;overflow=hidden;html=1;whiteSpace=wrap;" parent="aKlZ6hxRmL_Q2Zg3GWe3-74" vertex="1">
          <mxGeometry x="60" width="180" height="30" as="geometry">
            <mxRectangle width="180" height="30" as="alternateBounds" />
          </mxGeometry>
        </mxCell>
        <mxCell id="aKlZ6hxRmL_Q2Zg3GWe3-89" value="" style="shape=tableRow;horizontal=0;startSize=0;swimlaneHead=0;swimlaneBody=0;fillColor=none;collapsible=0;dropTarget=0;points=[[0,0.5],[1,0.5]];portConstraint=eastwest;top=0;left=0;right=0;bottom=0;" parent="aKlZ6hxRmL_Q2Zg3GWe3-73" vertex="1">
          <mxGeometry y="90" width="240" height="30" as="geometry" />
        </mxCell>
        <mxCell id="aKlZ6hxRmL_Q2Zg3GWe3-90" value="&lt;b&gt;PK,FK2&lt;/b&gt;" style="shape=partialRectangle;connectable=0;fillColor=none;top=0;left=0;bottom=0;right=0;fontStyle=0;overflow=hidden;whiteSpace=wrap;html=1;" parent="aKlZ6hxRmL_Q2Zg3GWe3-89" vertex="1">
          <mxGeometry width="60" height="30" as="geometry">
            <mxRectangle width="60" height="30" as="alternateBounds" />
          </mxGeometry>
        </mxCell>
        <mxCell id="aKlZ6hxRmL_Q2Zg3GWe3-91" value="&lt;b&gt;Suppliers_id_fk&lt;/b&gt;" style="shape=partialRectangle;connectable=0;fillColor=none;top=0;left=0;bottom=0;right=0;align=left;spacingLeft=6;fontStyle=0;overflow=hidden;whiteSpace=wrap;html=1;" parent="aKlZ6hxRmL_Q2Zg3GWe3-89" vertex="1">
          <mxGeometry x="60" width="180" height="30" as="geometry">
            <mxRectangle width="180" height="30" as="alternateBounds" />
          </mxGeometry>
        </mxCell>
        <mxCell id="aKlZ6hxRmL_Q2Zg3GWe3-77" value="" style="shape=tableRow;horizontal=0;startSize=0;swimlaneHead=0;swimlaneBody=0;fillColor=none;collapsible=0;dropTarget=0;points=[[0,0.5],[1,0.5]];portConstraint=eastwest;top=0;left=0;right=0;bottom=1;html=1;" parent="aKlZ6hxRmL_Q2Zg3GWe3-73" vertex="1">
          <mxGeometry y="120" width="240" height="30" as="geometry" />
        </mxCell>
        <mxCell id="aKlZ6hxRmL_Q2Zg3GWe3-78" value="PK,FK3" style="shape=partialRectangle;connectable=0;fillColor=none;top=0;left=0;bottom=0;right=0;fontStyle=1;overflow=hidden;html=1;whiteSpace=wrap;" parent="aKlZ6hxRmL_Q2Zg3GWe3-77" vertex="1">
          <mxGeometry width="60" height="30" as="geometry">
            <mxRectangle width="60" height="30" as="alternateBounds" />
          </mxGeometry>
        </mxCell>
        <mxCell id="aKlZ6hxRmL_Q2Zg3GWe3-79" value="Product_id_fk" style="shape=partialRectangle;connectable=0;fillColor=none;top=0;left=0;bottom=0;right=0;align=left;spacingLeft=6;fontStyle=5;overflow=hidden;html=1;whiteSpace=wrap;" parent="aKlZ6hxRmL_Q2Zg3GWe3-77" vertex="1">
          <mxGeometry x="60" width="180" height="30" as="geometry">
            <mxRectangle width="180" height="30" as="alternateBounds" />
          </mxGeometry>
        </mxCell>
        <mxCell id="aKlZ6hxRmL_Q2Zg3GWe3-80" value="" style="shape=tableRow;horizontal=0;startSize=0;swimlaneHead=0;swimlaneBody=0;fillColor=none;collapsible=0;dropTarget=0;points=[[0,0.5],[1,0.5]];portConstraint=eastwest;top=0;left=0;right=0;bottom=0;html=1;" parent="aKlZ6hxRmL_Q2Zg3GWe3-73" vertex="1">
          <mxGeometry y="150" width="240" height="30" as="geometry" />
        </mxCell>
        <mxCell id="aKlZ6hxRmL_Q2Zg3GWe3-81" value="" style="shape=partialRectangle;connectable=0;fillColor=none;top=0;left=0;bottom=0;right=0;editable=1;overflow=hidden;html=1;whiteSpace=wrap;" parent="aKlZ6hxRmL_Q2Zg3GWe3-80" vertex="1">
          <mxGeometry width="60" height="30" as="geometry">
            <mxRectangle width="60" height="30" as="alternateBounds" />
          </mxGeometry>
        </mxCell>
        <mxCell id="aKlZ6hxRmL_Q2Zg3GWe3-82" value="Movement_type(&quot;IN&quot;, &quot;OUT&quot;)" style="shape=partialRectangle;connectable=0;fillColor=none;top=0;left=0;bottom=0;right=0;align=left;spacingLeft=6;overflow=hidden;html=1;whiteSpace=wrap;" parent="aKlZ6hxRmL_Q2Zg3GWe3-80" vertex="1">
          <mxGeometry x="60" width="180" height="30" as="geometry">
            <mxRectangle width="180" height="30" as="alternateBounds" />
          </mxGeometry>
        </mxCell>
        <mxCell id="aKlZ6hxRmL_Q2Zg3GWe3-83" value="" style="shape=tableRow;horizontal=0;startSize=0;swimlaneHead=0;swimlaneBody=0;fillColor=none;collapsible=0;dropTarget=0;points=[[0,0.5],[1,0.5]];portConstraint=eastwest;top=0;left=0;right=0;bottom=0;html=1;" parent="aKlZ6hxRmL_Q2Zg3GWe3-73" vertex="1">
          <mxGeometry y="180" width="240" height="30" as="geometry" />
        </mxCell>
        <mxCell id="aKlZ6hxRmL_Q2Zg3GWe3-84" value="" style="shape=partialRectangle;connectable=0;fillColor=none;top=0;left=0;bottom=0;right=0;editable=1;overflow=hidden;html=1;whiteSpace=wrap;" parent="aKlZ6hxRmL_Q2Zg3GWe3-83" vertex="1">
          <mxGeometry width="60" height="30" as="geometry">
            <mxRectangle width="60" height="30" as="alternateBounds" />
          </mxGeometry>
        </mxCell>
        <mxCell id="aKlZ6hxRmL_Q2Zg3GWe3-85" value="Quantity" style="shape=partialRectangle;connectable=0;fillColor=none;top=0;left=0;bottom=0;right=0;align=left;spacingLeft=6;overflow=hidden;html=1;whiteSpace=wrap;" parent="aKlZ6hxRmL_Q2Zg3GWe3-83" vertex="1">
          <mxGeometry x="60" width="180" height="30" as="geometry">
            <mxRectangle width="180" height="30" as="alternateBounds" />
          </mxGeometry>
        </mxCell>
        <mxCell id="aKlZ6hxRmL_Q2Zg3GWe3-95" value="" style="shape=tableRow;horizontal=0;startSize=0;swimlaneHead=0;swimlaneBody=0;fillColor=none;collapsible=0;dropTarget=0;points=[[0,0.5],[1,0.5]];portConstraint=eastwest;top=0;left=0;right=0;bottom=0;" parent="aKlZ6hxRmL_Q2Zg3GWe3-73" vertex="1">
          <mxGeometry y="210" width="240" height="30" as="geometry" />
        </mxCell>
        <mxCell id="aKlZ6hxRmL_Q2Zg3GWe3-96" value="" style="shape=partialRectangle;connectable=0;fillColor=none;top=0;left=0;bottom=0;right=0;editable=1;overflow=hidden;" parent="aKlZ6hxRmL_Q2Zg3GWe3-95" vertex="1">
          <mxGeometry width="60" height="30" as="geometry">
            <mxRectangle width="60" height="30" as="alternateBounds" />
          </mxGeometry>
        </mxCell>
        <mxCell id="aKlZ6hxRmL_Q2Zg3GWe3-97" value="Movement_date " style="shape=partialRectangle;connectable=0;fillColor=none;top=0;left=0;bottom=0;right=0;align=left;spacingLeft=6;overflow=hidden;" parent="aKlZ6hxRmL_Q2Zg3GWe3-95" vertex="1">
          <mxGeometry x="60" width="180" height="30" as="geometry">
            <mxRectangle width="180" height="30" as="alternateBounds" />
          </mxGeometry>
        </mxCell>
        <mxCell id="aKlZ6hxRmL_Q2Zg3GWe3-102" value="Movements_Logs" style="shape=table;startSize=30;container=1;collapsible=1;childLayout=tableLayout;fixedRows=1;rowLines=0;fontStyle=1;align=center;resizeLast=1;html=1;" parent="1" vertex="1">
          <mxGeometry x="285" y="386" width="235" height="180" as="geometry" />
        </mxCell>
        <mxCell id="aKlZ6hxRmL_Q2Zg3GWe3-115" value="" style="shape=tableRow;horizontal=0;startSize=0;swimlaneHead=0;swimlaneBody=0;fillColor=none;collapsible=0;dropTarget=0;points=[[0,0.5],[1,0.5]];portConstraint=eastwest;top=0;left=0;right=0;bottom=0;" parent="aKlZ6hxRmL_Q2Zg3GWe3-102" vertex="1">
          <mxGeometry y="30" width="235" height="30" as="geometry" />
        </mxCell>
        <mxCell id="aKlZ6hxRmL_Q2Zg3GWe3-116" value="&lt;b&gt;PK,FK1&lt;/b&gt;" style="shape=partialRectangle;connectable=0;fillColor=none;top=0;left=0;bottom=0;right=0;fontStyle=0;overflow=hidden;whiteSpace=wrap;html=1;" parent="aKlZ6hxRmL_Q2Zg3GWe3-115" vertex="1">
          <mxGeometry width="47.45833333333343" height="30" as="geometry">
            <mxRectangle width="47.45833333333343" height="30" as="alternateBounds" />
          </mxGeometry>
        </mxCell>
        <mxCell id="aKlZ6hxRmL_Q2Zg3GWe3-117" value="&lt;b&gt;Movements_id_fk&lt;/b&gt;" style="shape=partialRectangle;connectable=0;fillColor=none;top=0;left=0;bottom=0;right=0;align=left;spacingLeft=6;fontStyle=0;overflow=hidden;whiteSpace=wrap;html=1;" parent="aKlZ6hxRmL_Q2Zg3GWe3-115" vertex="1">
          <mxGeometry x="47.45833333333343" width="187.54166666666657" height="30" as="geometry">
            <mxRectangle width="187.54166666666657" height="30" as="alternateBounds" />
          </mxGeometry>
        </mxCell>
        <mxCell id="aKlZ6hxRmL_Q2Zg3GWe3-119" value="" style="shape=tableRow;horizontal=0;startSize=0;swimlaneHead=0;swimlaneBody=0;fillColor=none;collapsible=0;dropTarget=0;points=[[0,0.5],[1,0.5]];portConstraint=eastwest;top=0;left=0;right=0;bottom=0;" parent="aKlZ6hxRmL_Q2Zg3GWe3-102" vertex="1">
          <mxGeometry y="60" width="235" height="30" as="geometry" />
        </mxCell>
        <mxCell id="aKlZ6hxRmL_Q2Zg3GWe3-120" value="&lt;b&gt;PK,FK2&lt;/b&gt;" style="shape=partialRectangle;connectable=0;fillColor=none;top=0;left=0;bottom=0;right=0;fontStyle=0;overflow=hidden;whiteSpace=wrap;html=1;" parent="aKlZ6hxRmL_Q2Zg3GWe3-119" vertex="1">
          <mxGeometry width="47.45833333333343" height="30" as="geometry">
            <mxRectangle width="47.45833333333343" height="30" as="alternateBounds" />
          </mxGeometry>
        </mxCell>
        <mxCell id="aKlZ6hxRmL_Q2Zg3GWe3-121" value="&lt;b&gt;Employee_id_fk&lt;/b&gt;" style="shape=partialRectangle;connectable=0;fillColor=none;top=0;left=0;bottom=0;right=0;align=left;spacingLeft=6;fontStyle=0;overflow=hidden;whiteSpace=wrap;html=1;" parent="aKlZ6hxRmL_Q2Zg3GWe3-119" vertex="1">
          <mxGeometry x="47.45833333333343" width="187.54166666666657" height="30" as="geometry">
            <mxRectangle width="187.54166666666657" height="30" as="alternateBounds" />
          </mxGeometry>
        </mxCell>
        <mxCell id="aKlZ6hxRmL_Q2Zg3GWe3-103" value="" style="shape=tableRow;horizontal=0;startSize=0;swimlaneHead=0;swimlaneBody=0;fillColor=none;collapsible=0;dropTarget=0;points=[[0,0.5],[1,0.5]];portConstraint=eastwest;top=0;left=0;right=0;bottom=1;" parent="aKlZ6hxRmL_Q2Zg3GWe3-102" vertex="1">
          <mxGeometry y="90" width="235" height="30" as="geometry" />
        </mxCell>
        <mxCell id="aKlZ6hxRmL_Q2Zg3GWe3-104" value="PK" style="shape=partialRectangle;connectable=0;fillColor=none;top=0;left=0;bottom=0;right=0;fontStyle=1;overflow=hidden;whiteSpace=wrap;html=1;" parent="aKlZ6hxRmL_Q2Zg3GWe3-103" vertex="1">
          <mxGeometry width="47.45833333333343" height="30" as="geometry">
            <mxRectangle width="47.45833333333343" height="30" as="alternateBounds" />
          </mxGeometry>
        </mxCell>
        <mxCell id="aKlZ6hxRmL_Q2Zg3GWe3-105" value="Log_id" style="shape=partialRectangle;connectable=0;fillColor=none;top=0;left=0;bottom=0;right=0;align=left;spacingLeft=6;fontStyle=5;overflow=hidden;whiteSpace=wrap;html=1;" parent="aKlZ6hxRmL_Q2Zg3GWe3-103" vertex="1">
          <mxGeometry x="47.45833333333343" width="187.54166666666657" height="30" as="geometry">
            <mxRectangle width="187.54166666666657" height="30" as="alternateBounds" />
          </mxGeometry>
        </mxCell>
        <mxCell id="aKlZ6hxRmL_Q2Zg3GWe3-106" value="" style="shape=tableRow;horizontal=0;startSize=0;swimlaneHead=0;swimlaneBody=0;fillColor=none;collapsible=0;dropTarget=0;points=[[0,0.5],[1,0.5]];portConstraint=eastwest;top=0;left=0;right=0;bottom=0;" parent="aKlZ6hxRmL_Q2Zg3GWe3-102" vertex="1">
          <mxGeometry y="120" width="235" height="30" as="geometry" />
        </mxCell>
        <mxCell id="aKlZ6hxRmL_Q2Zg3GWe3-107" value="" style="shape=partialRectangle;connectable=0;fillColor=none;top=0;left=0;bottom=0;right=0;editable=1;overflow=hidden;whiteSpace=wrap;html=1;" parent="aKlZ6hxRmL_Q2Zg3GWe3-106" vertex="1">
          <mxGeometry width="47.45833333333343" height="30" as="geometry">
            <mxRectangle width="47.45833333333343" height="30" as="alternateBounds" />
          </mxGeometry>
        </mxCell>
        <mxCell id="aKlZ6hxRmL_Q2Zg3GWe3-108" value="log_time" style="shape=partialRectangle;connectable=0;fillColor=none;top=0;left=0;bottom=0;right=0;align=left;spacingLeft=6;overflow=hidden;whiteSpace=wrap;html=1;" parent="aKlZ6hxRmL_Q2Zg3GWe3-106" vertex="1">
          <mxGeometry x="47.45833333333343" width="187.54166666666657" height="30" as="geometry">
            <mxRectangle width="187.54166666666657" height="30" as="alternateBounds" />
          </mxGeometry>
        </mxCell>
        <mxCell id="aKlZ6hxRmL_Q2Zg3GWe3-109" value="" style="shape=tableRow;horizontal=0;startSize=0;swimlaneHead=0;swimlaneBody=0;fillColor=none;collapsible=0;dropTarget=0;points=[[0,0.5],[1,0.5]];portConstraint=eastwest;top=0;left=0;right=0;bottom=0;" parent="aKlZ6hxRmL_Q2Zg3GWe3-102" vertex="1">
          <mxGeometry y="150" width="235" height="30" as="geometry" />
        </mxCell>
        <mxCell id="aKlZ6hxRmL_Q2Zg3GWe3-110" value="" style="shape=partialRectangle;connectable=0;fillColor=none;top=0;left=0;bottom=0;right=0;editable=1;overflow=hidden;whiteSpace=wrap;html=1;" parent="aKlZ6hxRmL_Q2Zg3GWe3-109" vertex="1">
          <mxGeometry width="47.45833333333343" height="30" as="geometry">
            <mxRectangle width="47.45833333333343" height="30" as="alternateBounds" />
          </mxGeometry>
        </mxCell>
        <mxCell id="aKlZ6hxRmL_Q2Zg3GWe3-111" value="note" style="shape=partialRectangle;connectable=0;fillColor=none;top=0;left=0;bottom=0;right=0;align=left;spacingLeft=6;overflow=hidden;whiteSpace=wrap;html=1;" parent="aKlZ6hxRmL_Q2Zg3GWe3-109" vertex="1">
          <mxGeometry x="47.45833333333343" width="187.54166666666657" height="30" as="geometry">
            <mxRectangle width="187.54166666666657" height="30" as="alternateBounds" />
          </mxGeometry>
        </mxCell>
        <mxCell id="aKlZ6hxRmL_Q2Zg3GWe3-129" value="" style="edgeStyle=entityRelationEdgeStyle;fontSize=12;html=1;endArrow=ERmandOne;startArrow=ERoneToMany;rounded=0;exitX=1;exitY=0.5;exitDx=0;exitDy=0;endFill=0;startFill=0;entryX=0;entryY=0.5;entryDx=0;entryDy=0;" parent="1" source="aKlZ6hxRmL_Q2Zg3GWe3-89" target="aKlZ6hxRmL_Q2Zg3GWe3-35" edge="1">
          <mxGeometry width="100" height="100" relative="1" as="geometry">
            <mxPoint x="622" y="321" as="sourcePoint" />
            <mxPoint x="704" y="413" as="targetPoint" />
            <Array as="points">
              <mxPoint x="649" y="365" />
            </Array>
          </mxGeometry>
        </mxCell>
        <mxCell id="aKlZ6hxRmL_Q2Zg3GWe3-130" value="" style="edgeStyle=entityRelationEdgeStyle;fontSize=12;html=1;endArrow=ERoneToMany;startArrow=ERmandOne;rounded=0;exitX=1;exitY=0.5;exitDx=0;exitDy=0;" parent="1" source="aKlZ6hxRmL_Q2Zg3GWe3-5" target="aKlZ6hxRmL_Q2Zg3GWe3-74" edge="1">
          <mxGeometry width="100" height="100" relative="1" as="geometry">
            <mxPoint x="120" y="410" as="sourcePoint" />
            <mxPoint x="220" y="310" as="targetPoint" />
          </mxGeometry>
        </mxCell>
        <mxCell id="aKlZ6hxRmL_Q2Zg3GWe3-132" value="" style="edgeStyle=entityRelationEdgeStyle;fontSize=12;html=1;endArrow=ERzeroToMany;startArrow=ERmandOne;rounded=0;" parent="1" source="aKlZ6hxRmL_Q2Zg3GWe3-77" target="aKlZ6hxRmL_Q2Zg3GWe3-48" edge="1">
          <mxGeometry width="100" height="100" relative="1" as="geometry">
            <mxPoint x="622" y="521" as="sourcePoint" />
            <mxPoint x="722" y="421" as="targetPoint" />
          </mxGeometry>
        </mxCell>
        <mxCell id="aKlZ6hxRmL_Q2Zg3GWe3-133" value="" style="edgeStyle=entityRelationEdgeStyle;fontSize=12;html=1;endArrow=ERoneToMany;startArrow=ERmandOne;rounded=0;entryX=1;entryY=0.5;entryDx=0;entryDy=0;" parent="1" source="aKlZ6hxRmL_Q2Zg3GWe3-115" target="aKlZ6hxRmL_Q2Zg3GWe3-83" edge="1">
          <mxGeometry width="100" height="100" relative="1" as="geometry">
            <mxPoint x="104" y="426" as="sourcePoint" />
            <mxPoint x="204" y="326" as="targetPoint" />
            <Array as="points">
              <mxPoint x="193" y="437" />
              <mxPoint x="554" y="387" />
              <mxPoint x="333" y="359" />
            </Array>
          </mxGeometry>
        </mxCell>
        <mxCell id="aKlZ6hxRmL_Q2Zg3GWe3-134" value="" style="edgeStyle=entityRelationEdgeStyle;fontSize=12;html=1;endArrow=ERzeroToMany;startArrow=ERmandOne;rounded=0;entryX=1;entryY=0.5;entryDx=0;entryDy=0;" parent="1" source="aKlZ6hxRmL_Q2Zg3GWe3-70" target="aKlZ6hxRmL_Q2Zg3GWe3-8" edge="1">
          <mxGeometry width="100" height="100" relative="1" as="geometry">
            <mxPoint x="232" y="261" as="sourcePoint" />
            <mxPoint x="332" y="161" as="targetPoint" />
            <Array as="points">
              <mxPoint x="212" y="191" />
              <mxPoint x="300" y="357" />
              <mxPoint x="160" y="185" />
              <mxPoint x="131" y="149" />
            </Array>
          </mxGeometry>
        </mxCell>
      </root>
    </mxGraphModel>
  </diagram>
</mxfile>
